<svg xmlns="http://www.w3.org/2000/svg" viewBox="0 0 480 310" width="480" height="310" role="img" font-family="Inter,'Segoe UI',system-ui,-apple-system,'Helvetica Neue',Arial,sans-serif"><title>SkillBeacon: A hub for discovering and tracking learning resources. I led the React frontend and the REST API integrations.</title><defs><linearGradient id="g" x1="0" x2="1"><stop offset="0" stop-color="#8b7cf6"/><stop offset=".5" stop-color="#38d6e8"/><stop offset="1" stop-color="#ffb454"/></linearGradient></defs><style>@media (prefers-reduced-motion:reduce){*{animation:none!important}}</style><rect x=".5" y=".5" width="479" height="309" rx="16" fill="#151a33" stroke="#262c52"/><g transform="translate(24,24)"><line x1="216" y1="50" x2="90" y2="26" stroke="#262c52" stroke-width="1.5"/><line x1="216" y1="50" x2="140" y2="78" stroke="#262c52" stroke-width="1.5"/><line x1="216" y1="50" x2="310" y2="20" stroke="#262c52" stroke-width="1.5"/><line x1="216" y1="50" x2="352" y2="72" stroke="#262c52" stroke-width="1.5"/><line x1="216" y1="50" x2="392" y2="34" stroke="#262c52" stroke-width="1.5"/><line x1="216" y1="50" x2="56" y2="70" stroke="#262c52" stroke-width="1.5"/><circle cx="216" cy="50" r="14" fill="none" stroke="#8b7cf6" opacity="0.9" stroke-width="1.5"/><circle cx="216" cy="50" r="30" fill="none" stroke="#8b7cf6" opacity="0.5" stroke-width="1.5"/><circle cx="216" cy="50" r="46" fill="none" stroke="#8b7cf6" opacity="0.28" stroke-width="1.5"/><circle cx="216" cy="50" r="14" fill="none" stroke="#38d6e8" stroke-width="2"><animate attributeName="r" from="14" to="52" dur="3s" repeatCount="indefinite"/><animate attributeName="opacity" from=".9" to="0" dur="3s" repeatCount="indefinite"/></circle><circle cx="216" cy="50" r="7" fill="#38d6e8"/><circle cx="90" cy="26" r="5" fill="#38d6e8"/><circle cx="140" cy="78" r="5" fill="#8b7cf6"/><circle cx="310" cy="20" r="5" fill="#ffb454"/><circle cx="352" cy="72" r="5" fill="#38d6e8"/><circle cx="392" cy="34" r="5" fill="#ff6b8b"/><circle cx="56" cy="70" r="5" fill="#8b7cf6"/></g><rect x="24" y="140" width="40" height="4" rx="2" fill="#ff6b8b"/><text x="24" y="176" font-size="23" fill="#e8eaf6" font-weight="700" text-anchor="start" >SkillBeacon</text><rect x="348.2" y="158" width="107.8" height="24" rx="12" fill="none" stroke="#ff6b8b"/><text x="402.1" y="174" font-size="12" fill="#ff6b8b" font-weight="500" text-anchor="middle" >Frontend lead</text><text x="24" y="206" font-size="14" fill="#9aa1c9" font-weight="400" text-anchor="start" >A hub for discovering and tracking learning resources.</text><text x="24" y="227" font-size="14" fill="#9aa1c9" font-weight="400" text-anchor="start" >I led the React frontend and the REST API integrations.</text><rect x="24.0" y="254" width="53.6" height="24" rx="12.0" fill="#1d2347" stroke="#262c52"/><text x="50.8" y="270.2" font-size="12" fill="#e8eaf6" font-weight="500" text-anchor="middle" >React</text><rect x="83.6" y="254" width="100.6" height="24" rx="12.0" fill="#1d2347" stroke="#262c52"/><text x="133.9" y="270.2" font-size="12" fill="#e8eaf6" font-weight="500" text-anchor="middle" >Tailwind CSS</text><rect x="190.2" y="254" width="93.9" height="24" rx="12.0" fill="#1d2347" stroke="#262c52"/><text x="237.2" y="270.2" font-size="12" fill="#e8eaf6" font-weight="500" text-anchor="middle" >Spring Boot</text><rect x="290.2" y="254" width="87.2" height="24" rx="12.0" fill="#1d2347" stroke="#262c52"/><text x="333.8" y="270.2" font-size="12" fill="#e8eaf6" font-weight="500" text-anchor="middle" >PostgreSQL</text><rect x="383.4" y="254" width="53.6" height="24" rx="12.0" fill="#1d2347" stroke="#262c52"/><text x="410.2" y="270.2" font-size="12" fill="#e8eaf6" font-weight="500" text-anchor="middle" >Clerk</text><rect x="24.0" y="284" width="53.6" height="24" rx="12.0" fill="#1d2347" stroke="#262c52"/><text x="50.8" y="300.2" font-size="12" fill="#e8eaf6" font-weight="500" text-anchor="middle" >Apify</text></svg>